<svg xmlns="http://www.w3.org/2000/svg" viewBox="0 0 46.29 45.96"><defs><style>.cls-1{fill:#0c2144;}</style></defs><title>Ресурс 8</title><g id="Слой_2" data-name="Слой 2"><g id="Calque_2" data-name="Calque 2"><path class="cls-1" d="M23.35,42c-5.64,0-11-4.15-11-12.23s5.37-12.18,11-12.18c5.06,0,8.47,2.62,9.65,7.29l4-1.4c-1.57-6-6.55-9.82-13.62-9.82C15.66,13.69,8,19.45,8,29.8S15.36,46,23.35,46c7.12,0,12-4.15,13.67-10l-3.8-1.4A9.85,9.85,0,0,1,23.35,42Z"/><rect class="cls-1" x="36.04" y="7.29" width="4.83" height="1.62" rx="0.52" transform="translate(7.42 32.21) rotate(-49.74)"/><rect class="cls-1" x="1.31" y="16.36" width="1.39" height="4.12" rx="0.44" transform="translate(-15.38 11.99) rotate(-63.51)"/><rect class="cls-1" x="15.99" y="0.01" width="1.99" height="5.93" rx="0.64" transform="translate(-0.2 4.44) rotate(-14.8)"/><rect class="cls-1" x="42.43" y="17.25" width="3.9" height="1.31" rx="0.42" transform="translate(-3.45 19.6) rotate(-24)"/><rect class="cls-1" x="6.5" y="5.9" width="1.67" height="4.98" rx="0.54" transform="translate(-3.78 7.69) rotate(-45.24)"/><rect class="cls-1" x="26.17" y="2.06" width="5.99" height="2.01" rx="0.64" transform="matrix(0.28, -0.96, 0.96, 0.28, 18, 30.19)"/></g></g></svg>