<svg height="488pt" viewBox="-5 0 488 488" width="20" height="20" xmlns="http://www.w3.org/2000/svg"><path d="m456.398438 4h-349.171876c-1.835937 73.214844 19.296876 129.023438 30.753907 153.667969 3.359375 7.234375.28125 15.921875-6.957031 19.28125-47.578126 22.074219-77.871094 74.78125-91.277344 103.050781l-.019532.042969c-2.117187 4.457031-3.8125 8.3125-5.085937 11.335937l-6.304687 14.046875-8.222657-2.535156-.410156-.175781c-5.808594-2.457032-12.636719 2.375-13.960937 9.886718l-1.53125 8.675782c-.871094 4.945312.953124 9.675781 4.554687 11.800781 2.1875 1.296875 3.777344 3.59375 4.433594 6.414063l7.125 30.523437c.753906 3.242187 2.832031 5.695313 5.585937 6.589844l5.390625 1.761719c3.195313 1.039062 6.652344-.199219 9.128907-2.890626l.011718.019532s1.402344-.84375 2.382813.617187h.019531c.527344 3.679688 2.714844 6.710938 5.976562 7.664063l5.445313 1.585937c2.777344.808594 5.863281-.050781 8.289063-2.308593l22.839843-21.269532c2.113281-1.96875 4.703125-2.972656 7.234375-2.808594 4.167969.265626 8.304688-2.621093 10.324219-7.207031l3.546875-8.054687c3.074219-6.976563.101562-14.832032-6.082031-16.074219l-3.855469-1.191406c18.832031-23.949219 50.652344-60.144531 71.277344-60.667969l33.226562 74.21875s24 33.332031 30 82l8.929688 62h232.402344v-480zm0 0" fill="#f9cfcf"/><path d="m380.746094 260.664062c-.484375 0-.964844-.015624-1.445313-.023437l-9.9375 9.175781c-4.78125 4.417969-11 6.847656-17.507812 6.847656-8.023438 0-15.710938-3.8125-20.5625-10.207031l-31.378907-41.367187c-9.71875-12.804688-20.9375-23.429688-33.355468-31.574219-44.542969-29.21875-84.980469-17.832031-96.3125-13.648437-1.195313.441406-2.523438.871093-4.3125 1.398437-87.351563 25.804687-128.863282 176.257813-130.589844 182.648437-1.148438 4.269532 1.375 8.65625 5.640625 9.808594.695313.1875 1.398437.28125 2.089844.28125 3.523437 0 6.753906-2.351562 7.714843-5.917968.402344-1.480469 40.894532-148.203126 119.671876-171.472657 2.136718-.628906 3.777343-1.164062 5.320312-1.734375 6.804688-2.511718 42.734375-13.742187 82 12.015625 10.886719 7.140625 20.773438 16.519531 29.382812 27.871094l31.382813 41.363281c7.855469 10.355469 20.308594 16.542969 33.304687 16.542969 10.546876 0 20.621094-3.941406 28.367188-11.097656l16.273438-15.027344c2.226562-2.054687 2.984374-5.070313 2.296874-7.8125-5.6875 1.25-11.746093 1.929687-18.042968 1.929687zm0 0" fill="#ffea92"/><path d="m223.699219 211.167969c-31.390625-8.875-65.4375 14.351562-76.046875 51.878906-10.613282 37.527344 6.230468 75.144531 37.621094 84.019531 31.390624 8.875 65.4375-14.351562 76.046874-51.878906 10.613282-37.527344-6.230468-75.140625-37.621093-84.019531zm0 0" fill="#f9cfcf"/><path d="m198.90625 328.957031c-2.777344 0-5.539062-.382812-8.203125-1.136719-20.726563-5.859374-31.414063-32.472656-23.816406-59.328124 6.421875-22.71875 24.570312-39.207032 43.152343-39.207032 2.78125 0 5.539063.378906 8.207032 1.136719 9.382812 2.648437 17.105468 9.820313 21.75 20.191406 5.191406 11.59375 5.925781 25.492188 2.070312 39.132813-6.425781 22.71875-24.578125 39.210937-43.160156 39.210937zm0 0" fill="#f9a7a7"/><path d="m439.554688 220.519531c0-22.175781-26.332032-40.152343-58.808594-40.152343-32.480469 0-58.808594 17.976562-58.808594 40.152343 0 22.171875 26.328125 40.148438 58.808594 40.148438 32.476562 0 58.808594-17.976563 58.808594-40.148438zm0 0" fill="#a4c9ff"/><path d="m456.398438 131.867188c0-20.953126-12.179688-39.988282-31.203126-48.765626-10.613281-4.898437-21.671874-8.671874-32.992187-11.316406l.007813-.007812c-54.113282-14.707032-89.757813 4.386718-89.757813 4.386718-5.980469 2.976563-11.449219 6.988282-16.125 11.902344-8.070313 8.484375-12.570313 19.742188-12.570313 31.453125 0 5.476563.984376 10.914063 2.914063 16.042969l1.398437 3.71875c8.074219 21.496094 24.957032 38.507812 46.390626 46.746094 13.207031 5.074218 26.796874 9.023437 40.621093 11.859375l-.003906.007812s26.15625 7.460938 47.007813 1.320313c5.226562-1.175782 10.320312-3.042969 14.730468-5.925782.007813-.003906.011719-.007812.019532-.011718.0625-.042969.121093-.089844.183593-.132813 10.171875-7.128906 21.125-19.636719 26.457031-41.507812l-.015624-.003907c1.925781-6.378906 2.9375-13.035156 2.9375-19.765624zm0 0" fill="#4671c6"/><path d="m359.765625 407.089844 34.578125-10.925782-37.679688-119.296874c-5.730468-18.140626-25.082031-28.203126-43.226562-22.472657-.953125.300781-1.484375 1.320313-1.179688 2.277344zm0 0" fill="#a4c9ff"/><path d="m385.5625 368.355469-34.578125 10.921875 8.066406 25.535156c-8.976562 9.054688-12.757812 22.65625-8.648437 35.65625 5.898437 18.671875 25.816406 29.027344 44.488281 23.132812 18.671875-5.898437 29.027344-25.816406 23.132813-44.488281-3.691407-11.679687-12.867188-20.109375-23.796876-23.335937zm19.226562 54.933593c3.582032 11.347657-2.730468 23.496094-14.078124 27.082032-11.351563 3.582031-23.496094-2.734375-27.082032-14.082032-3.582031-11.347656 2.730469-23.496093 14.082032-27.078124 11.347656-3.585938 23.492187 2.730468 27.078124 14.078124zm0 0" fill="#f9a7a7"/><path d="m384.160156 469.265625c-6.25 0-12.449218-1.5-18.152344-4.46875-9.351562-4.859375-16.25-13.070313-19.421874-23.121094-4.179688-13.234375-1.128907-27.53125 7.945312-37.882812l-46.089844-145.917969c-.464844-1.480469-.332031-3.054688.386719-4.433594s1.925781-2.394531 3.410156-2.863281c20.210938-6.378906 41.859375 4.871094 48.242188 25.082031l36.9375 116.949219c11.632812 4.132813 20.675781 13.457031 24.417969 25.296875 3.171874 10.050781 2.242187 20.734375-2.617188 30.085938-4.863281 9.351562-13.078125 16.246093-23.128906 19.421874-3.917969 1.238282-7.933594 1.851563-11.929688 1.851563zm-67.40625-211.640625 46.105469 145.980469c.449219 1.417969.074219 2.964843-.972656 4.023437-8.265625 8.335938-11.207031 20.460938-7.671875 31.636719 2.527344 8.011719 8.027344 14.558594 15.480468 18.433594 7.457032 3.878906 15.972657 4.621093 23.984376 2.085937 8.011718-2.527344 14.5625-8.027344 18.4375-15.484375 3.875-7.453125 4.617187-15.972656 2.085937-23.984375-3.15625-9.992187-11.050781-17.730468-21.117187-20.707031-1.273438-.375-2.277344-1.363281-2.679688-2.628906l-37.554688-118.90625c-4.835937-15.308594-20.71875-24.125-36.097656-20.449219zm-3.3125-3.230469h.019532zm70.753906 200.984375c-4.054687 0-8.078124-.972656-11.785156-2.902344-6.066406-3.152343-10.542968-8.472656-12.597656-14.980468-4.246094-13.453125 3.242188-27.851563 16.691406-32.101563 6.507813-2.054687 13.433594-1.449219 19.5 1.707031 6.070313 3.15625 10.542969 8.476563 12.597656 14.984376 4.25 13.453124-3.238281 27.851562-16.6875 32.097656-2.535156.800781-5.132812 1.195312-7.71875 1.195312zm.015626-43.175781c-1.777344 0-3.558594.273437-5.296876.820313-9.242187 2.921874-14.390624 12.820312-11.46875 22.0625 1.410157 4.46875 4.484376 8.125 8.660157 10.292968 4.171875 2.167969 8.929687 2.589844 13.402343 1.175782 9.246094-2.921876 14.390626-12.816407 11.46875-22.0625-1.410156-4.46875-4.484374-8.125-8.660156-10.292969-2.550781-1.324219-5.320312-1.996094-8.105468-1.996094zm0 0" fill="#3762cc"/><path d="m410.132812 341.382812-1.566406 36.230469-124.988281-5.394531c-19.007813-.820312-33.753906-16.894531-32.933594-35.902344.042969-1 .890625-1.777344 1.890625-1.734375zm0 0" fill="#e0ebfc"/><path d="m439.933594 323.664062c-13.621094-.589843-25.773438 6.597657-32.1875 17.617188l-27.292969-1.179688-1.5625 36.230469 29.265625 1.265625c5.957031 9.710938 16.480469 16.386719 28.71875 16.917969 19.5625.84375 36.109375-14.332031 36.953125-33.894531.84375-19.566406-14.332031-36.109375-33.894531-36.957032zm20.035156 36.355469c-.515625 11.886719-10.605469 21.140625-22.492188 20.628907-11.890624-.511719-21.144531-10.601563-20.632812-22.492188.511719-11.886719 10.601562-21.140625 22.492188-20.628906 11.890624.511718 21.144531 10.601562 20.632812 22.492187zm0 0" fill="#f9a7a7"/><path d="m369.121094 355.585938c0 4.003906-3.246094 7.253906-7.25 7.253906s-7.253906-3.25-7.253906-7.253906c0-4.003907 3.25-7.25 7.253906-7.25s7.25 3.246093 7.25 7.25zm0 0" fill="#6bdddd"/><path d="m438.425781 398.542969c-.574219 0-1.144531-.011719-1.722656-.035157-12.40625-.539062-23.753906-6.847656-30.773437-17.007812l-122.523438-5.289062c-10.261719-.445313-19.734375-4.855469-26.675781-12.425782-6.945313-7.566406-10.523438-17.386718-10.078125-27.644531.136718-3.203125 2.839844-5.710937 6.058594-5.554687l152.878906 6.597656c7.644531-11.457032 20.65625-18.121094 34.519531-17.519532 21.734375.941407 38.65625 19.386719 37.71875 41.125-.917969 21.160157-18.425781 37.753907-39.402344 37.753907zm-183.804687-59.867188c.203125 7.328125 3 14.253907 8 19.707031 5.5 5.992188 13 9.488282 21.128906 9.839844l124.578125 5.375c1.328125.054688 2.542969.773438 3.238281 1.90625 5.488282 8.949219 15.011719 14.558594 25.480469 15.011719 17.324219.753906 32.035156-12.742187 32.785156-30.070313.746094-17.328124-12.746093-32.035156-30.074219-32.785156-11.679687-.515625-22.652343 5.484375-28.558593 15.632813-.746094 1.28125-2.136719 2.011719-3.628907 1.984375zm183.796875 45.996094c-.371094 0-.742188-.011719-1.117188-.027344-14.089843-.609375-25.0625-12.566406-24.457031-26.660156.609375-14.089844 12.574219-25.058594 26.664062-24.457031 14.089844.609375 25.0625 12.570312 24.457032 26.664062-.597656 13.71875-11.945313 24.480469-25.546875 24.480469zm-.019531-43.164063c-9.351563 0-17.152344 7.390626-17.5625 16.820313-.414063 9.6875 7.125 17.90625 16.808593 18.324219 9.707031.460937 17.90625-7.121094 18.324219-16.804688.417969-9.6875-7.125-17.90625-16.808594-18.324218-.253906-.011719-.511718-.015626-.761718-.015626zm21.570312 18.511719h.019531zm0 0" fill="#3762cc"/><path d="m472.398438 488h-232.402344c-1.992188 0-3.675782-1.460938-3.960938-3.429688l-8.925781-62c-3.898437-31.621093-15.515625-56.597656-22.925781-69.875-6.789063.648438-13.511719.050782-20.007813-1.78125-26.667969-7.542968-44.085937-34.621093-43.691406-66.238281-13.175781 11.230469-26.707031 26.714844-37.136719 39.671875 2.796875 1.117188 5.097656 3.242188 6.605469 6.148438 2.285156 4.398437 2.363281 9.941406.210937 14.828125l-3.546874 8.054687c-2.691407 6.105469-8.421876 9.925782-14.238282 9.585938-1.433594-.089844-2.949218.523437-4.25 1.746094l-22.851562 21.269531c-3.460938 3.222656-8.003906 4.425781-12.132813 3.222656l-5.441406-1.585937c-3.367187-.980469-6.0625-3.4375-7.59375-6.75-3.117187 1.875-6.71875 2.386718-10.042969 1.304687l-5.394531-1.761719c-4.085937-1.332031-7.167969-4.875-8.242187-9.484375l-7.121094-30.523437c-.414063-1.761719-1.328125-3.136719-2.578125-3.875-5.019531-2.96875-7.617188-9.375-6.457031-15.941406l1.53125-8.679688c.929687-5.269531 4.082031-9.824219 8.425781-12.1875 3.578125-1.941406 7.496093-2.183594 11.035156-.6875l.222656.09375 4.652344 1.433594 4.851563-10.820313c1.53125-3.628906 3.265624-7.5 5.121093-11.410156 14.042969-29.601563 44.792969-82.539063 93.234375-105.011719 2.511719-1.167968 4.421875-3.265625 5.371094-5.910156.949219-2.648438.820312-5.511719-.363281-8.054688-12.414063-26.699218-32.957031-82.402343-31.128907-155.453124.054688-2.167969 1.832032-3.898438 4-3.898438h365.171876c2.207031 0 4 1.792969 4 4v480c0 2.207031-1.792969 4-4 4zm-228.9375-8h224.9375v-472h-357.25c-.980469 69.496094 18.566406 122.390625 30.457031 147.980469 2.078125 4.46875 2.304687 9.484375.636719 14.128906-1.675782 4.675781-5.0625 8.390625-9.53125 10.464844-46.164063 21.414062-75.796876 72.558593-89.351563 101.136719-1.828125 3.851562-3.511719 7.609374-5.035156 11.21875l-6.335938 14.128906c-.828125 1.839844-2.902343 2.785156-4.828125 2.183594l-8.222656-2.53125c-.125-.039063-.253906-.085938-.375-.136719l-.414062-.171875c-1.609376-.6875-3.121094-.191406-4.101563.34375-2.191406 1.191406-3.867187 3.703125-4.367187 6.550781l-1.53125 8.675781c-.574219 3.25.515624 6.402344 2.652343 7.664063 3.144531 1.863281 5.382813 5.039062 6.292969 8.949219l7.125 30.519531c.433594 1.859375 1.527344 3.242187 2.929688 3.699219l5.390624 1.757812c1.558594.507812 3.460938-.179688 4.945313-1.792969.449219-.488281 1.003906-.847656 1.609375-1.0625 2.125-.894531 4.957031-.558593 6.789062 1.808594.476563.558594.808594 1.253906.921876 2.027344.320312 2.238281 1.523437 3.921875 3.132812 4.394531l5.445312 1.585938c1.402344.410156 3.0625-.113282 4.441407-1.398438l22.84375-21.269531c2.933593-2.734375 6.558593-4.121094 10.21875-3.875 2.464843.15625 5.082031-1.828125 6.402343-4.828125l3.550782-8.054688c1.164062-2.648437 1.167968-5.683594.007812-7.914062-.519531-1.007813-1.503906-2.28125-3.21875-2.625-.132812-.027344-.261718-.0625-.390625-.101563l-3.855469-1.1875c-1.261718-.390625-2.25-1.375-2.640624-2.632812-.394532-1.257813-.140626-2.625.671874-3.664063 12.8125-16.285156 31.757813-38.402344 49.285157-51.277344 1.285156-.949218 3.011719-1.039062 4.386719-.230468 1.378906.800781 2.144531 2.347656 1.953124 3.929687-3.800781 31.53125 11.890626 59.632813 37.308594 66.820313 6.285156 1.773437 12.816406 2.191406 19.421875 1.230468 1.625-.230468 3.214844.535157 4.039063 1.953126 7.578125 13.085937 20.929687 40.246093 25.226562 75.109374zm0 0" fill="#3762cc"/><path d="m198.835938 352.945312c-4.894532 0-9.804688-.65625-14.664063-2.03125-33.457031-9.457031-51.574219-49.367187-40.382813-88.953124 6-21.226563 19.527344-39.019532 37.105469-48.820313 1.929688-1.078125 4.367188-.386719 5.441407 1.546875 1.078124 1.929688.386718 4.363281-1.542969 5.441406-15.738281 8.773438-27.875 24.8125-33.300781 44.007813-9.992188 35.34375 5.644531 70.820312 34.859374 79.078125 29.222657 8.269531 61.117188-13.769532 71.113282-49.113282.601562-2.128906 2.8125-3.359374 4.933594-2.761718 2.125.601562 3.363281 2.808594 2.761718 4.9375-9.570312 33.84375-37.511718 56.667968-66.324218 56.667968zm0 0" fill="#3762cc"/><path d="m434.523438 52.632812c-10.335938-6.566406-22.273438-10.035156-34.515626-10.035156h-89.785156c-22.03125 0-43.019531 10.5625-56.144531 28.261719-11.484375 15.480469-16.082031 35.238281-12.621094 54.199219l14.394531 78.824218c2.957032 16.175782-4.886718 32.097657-19.515624 39.613282-.089844.046875-.164063.113281-.253907.164062 1.46875 2.121094 2.78125 4.4375 3.910157 6.953125 1.082031 2.417969 1.925781 4.953125 2.617187 7.550781.351563-.125.699219-.265624 1.039063-.4375 20.945312-10.761718 32.175781-33.550781 27.945312-56.71875l-14.394531-78.820312c-2.671875-14.625.875-29.859375 9.730469-41.792969 10.121093-13.648437 26.304687-21.792969 43.292968-21.792969h89.785156c9.203126 0 18.167969 2.609376 25.941407 7.542969 13.0625 8.292969 21.222656 22.070313 22.3125 37.339844 5.207031 8.359375 8.136719 18.136719 8.136719 28.386719 0 2.667968-.203126 5.316406-.515626 7.945312.175782.011719.339844.054688.515626.054688 4.417968 0 8-3.582032 8-8v-24.878906c0-22.160157-11.167969-42.480469-29.875-54.359376zm0 0" fill="#e0ebfc"/><g fill="#f9a7a7"><path d="m220.519531 213.335938c-1.566406 0-3.125-.609376-4.300781-1.816407l-8.371094-8.605469c-2.308594-2.375-2.257812-6.171874.121094-8.480468 2.375-2.3125 6.171875-2.257813 8.480469.117187l8.371093 8.601563c2.308594 2.375 2.257813 6.171875-.121093 8.484375-1.164063 1.132812-2.675781 1.699219-4.179688 1.699219zm0 0"/><path d="m275.582031 269.941406c-1.566406 0-3.128906-.605468-4.304687-1.816406l-13.765625-14.152344c-2.308594-2.375-2.257813-6.171875.121093-8.484375 2.375-2.3125 6.171876-2.257812 8.480469.121094l13.769531 14.152344c2.308594 2.375 2.257813 6.171875-.121093 8.480469-1.164063 1.132812-2.671875 1.699218-4.179688 1.699218zm-27.53125-28.304687c-1.5625 0-3.125-.605469-4.300781-1.816407l-13.765625-14.148437c-2.3125-2.378906-2.257813-6.175781.117187-8.484375 2.375-2.3125 6.171876-2.257812 8.484376.117188l13.765624 14.152343c2.308594 2.375 2.257813 6.171875-.117187 8.484375-1.167969 1.132813-2.675781 1.695313-4.183594 1.695313zm0 0"/><path d="m297.714844 292.695312c-1.566406 0-3.128906-.609374-4.304688-1.816406l-8.367187-8.601562c-2.308594-2.378906-2.257813-6.175782.117187-8.484375 2.375-2.316407 6.175782-2.261719 8.484375.117187l8.367188 8.601563c2.3125 2.375 2.257812 6.175781-.117188 8.484375-1.164062 1.132812-2.675781 1.699218-4.179687 1.699218zm0 0"/></g></svg>